<?xml version="1.0" encoding="UTF-8"?>
<!DOCTYPE svg PUBLIC "-//W3C//DTD SVG 1.1//EN" "http://www.w3.org/Graphics/SVG/1.1/DTD/svg11.dtd">
<svg xmlns="http://www.w3.org/2000/svg" version="1.1" width="347px" height="346px" style="shape-rendering:geometricPrecision; text-rendering:geometricPrecision; image-rendering:optimizeQuality; fill-rule:evenodd; clip-rule:evenodd" xmlns:xlink="http://www.w3.org/1999/xlink">
<g><path style="opacity:1" fill="#f9f9f9" d="M -0.5,-0.5 C 50.5,-0.5 101.5,-0.5 152.5,-0.5C 93.8522,8.06557 49.3522,37.7322 19,88.5C 9.90406,104.996 3.40406,122.329 -0.5,140.5C -0.5,93.5 -0.5,46.5 -0.5,-0.5 Z"/></g>
<g><path style="opacity:1" fill="#040707" d="M 152.5,-0.5 C 164.5,-0.5 176.5,-0.5 188.5,-0.5C 235.574,5.20054 274.574,25.8672 305.5,61.5C 304.178,61.67 303.011,61.3366 302,60.5C 301.544,61.7441 302.044,62.5774 303.5,63C 301.612,68.0166 298.946,72.5166 295.5,76.5C 298.532,76.1776 300.199,77.511 300.5,80.5C 298.755,88.2978 296.421,88.4645 293.5,81C 290.514,81.1276 287.514,81.1276 284.5,81C 285.5,80.6667 286.5,80.3333 287.5,80C 288.641,77.6921 290.308,75.8587 292.5,74.5C 289.5,73.8333 286.5,73.1667 283.5,72.5C 283.489,68.4118 281.489,67.5785 277.5,70C 279.176,71.1769 280.509,72.6769 281.5,74.5C 279.675,75.5709 278.508,74.9042 278,72.5C 277.085,75.4815 275.585,78.1482 273.5,80.5C 274.668,83.4689 276.001,83.8022 277.5,81.5C 281.692,84.0189 286.192,86.0189 291,87.5C 291.772,87.3552 292.439,87.0219 293,86.5C 295.417,90.7489 298.917,93.7489 303.5,95.5C 304.167,96.8333 304.833,98.1667 305.5,99.5C 304.726,100.711 303.893,100.711 303,99.5C 301.41,101.65 300.743,103.983 301,106.5C 301.533,104.061 302.7,103.395 304.5,104.5C 305.167,107.167 305.833,107.167 306.5,104.5C 307.168,102.537 307.502,100.537 307.5,98.5C 308.654,101.073 310.32,103.239 312.5,105C 311.182,108.537 312.515,110.371 316.5,110.5C 316.5,111.5 316.5,112.5 316.5,113.5C 312.126,114.375 309.626,117.041 309,121.5C 308.51,120.207 308.343,118.873 308.5,117.5C 305.833,117.5 303.167,117.5 300.5,117.5C 300.5,116.167 300.5,114.833 300.5,113.5C 299.167,113.5 297.833,113.5 296.5,113.5C 296.34,110.116 296.673,106.783 297.5,103.5C 295.624,101.952 294.624,99.952 294.5,97.5C 293.448,97.3505 292.448,97.5172 291.5,98C 292.337,99.0113 292.67,100.178 292.5,101.5C 289.272,101.701 286.105,101.367 283,100.5C 280.953,101.609 278.787,102.276 276.5,102.5C 276.33,103.822 276.663,104.989 277.5,106C 276.833,106.333 276.167,106.667 275.5,107C 276.563,108.188 277.897,108.688 279.5,108.5C 279.426,113.806 277.259,114.806 273,111.5C 268.872,114.054 267.538,112.721 269,107.5C 270.616,108.545 272.283,109.545 274,110.5C 274.107,107.713 274.274,104.713 274.5,101.5C 273.167,101.5 271.833,101.5 270.5,101.5C 270.227,99.549 270.893,98.049 272.5,97C 270.814,95.3526 269.48,93.5193 268.5,91.5C 268.818,90.3527 269.484,89.5194 270.5,89C 269.177,88.1841 268.511,87.0174 268.5,85.5C 268.5,84.8333 268.5,84.1667 268.5,83.5C 268.5,80.1667 268.5,76.8333 268.5,73.5C 255.52,73.7789 255.52,72.4455 268.5,69.5C 269.086,69.7093 269.586,70.0426 270,70.5C 269.339,68.9652 269.006,67.2985 269,65.5C 269.667,66.8333 270.667,67.8333 272,68.5C 272.417,67.244 273.25,66.5774 274.5,66.5C 275.204,68.3442 276.537,68.8442 278.5,68C 277.167,67 277.167,66 278.5,65C 276.934,64.235 275.601,64.4017 274.5,65.5C 272.019,65.6766 270.186,64.6766 269,62.5C 268.216,59.6653 267.883,56.9986 268,54.5C 267.085,55.3279 266.419,56.3279 266,57.5C 265,56.1667 264,56.1667 263,57.5C 262.355,56.354 261.522,55.354 260.5,54.5C 261.428,53.2322 261.595,51.8989 261,50.5C 260.667,51.1667 260.333,51.8333 260,52.5C 259.092,50.5614 257.592,49.5614 255.5,49.5C 256.5,52.1667 257.5,54.8333 258.5,57.5C 253.833,57.5 249.167,57.5 244.5,57.5C 243.833,53.5 243.167,53.5 242.5,57.5C 241.167,57.5 239.833,57.5 238.5,57.5C 237.833,53.5 237.167,53.5 236.5,57.5C 231.46,58.7551 226.46,58.7551 221.5,57.5C 221.36,59.1238 222.027,60.2904 223.5,61C 222.151,61.7724 221.318,62.9391 221,64.5C 220.02,63.0186 218.853,61.6853 217.5,60.5C 218.025,59.8076 218.692,59.3076 219.5,59C 217.865,58.4604 216.532,58.9604 215.5,60.5C 214.069,60.0234 212.736,59.3567 211.5,58.5C 215.487,58.6584 215.987,57.3251 213,54.5C 210.177,54.9195 207.344,55.2528 204.5,55.5C 206.482,56.2162 208.149,57.3829 209.5,59C 209.167,59.3333 208.833,59.6667 208.5,60C 209.714,62.3506 210.548,64.8506 211,67.5C 212.938,68.8602 214.604,68.5268 216,66.5C 217.009,68.0249 217.509,69.6916 217.5,71.5C 216.5,71.5 215.5,71.5 214.5,71.5C 214.158,70.6618 213.492,70.3284 212.5,70.5C 210.865,69.1854 209.199,69.1854 207.5,70.5C 206.289,69.7261 206.289,68.8928 207.5,68C 206.833,67.3333 206.167,67.3333 205.5,68C 204.712,71.0757 204.212,74.2423 204,77.5C 202.735,75.6035 201.069,74.2701 199,73.5C 195.542,74.2865 192.042,74.6198 188.5,74.5C 188.5,72.8333 188.5,71.1667 188.5,69.5C 185.813,69.3359 183.146,69.5026 180.5,70C 179.167,70.6667 178.167,71.6667 177.5,73C 178.872,74.2419 179.872,75.7419 180.5,77.5C 179.147,78.5237 178.48,79.857 178.5,81.5C 176.856,81.7135 175.356,81.3802 174,80.5C 172.927,82.5466 171.761,84.5466 170.5,86.5C 170.833,86.8333 171.167,87.1667 171.5,87.5C 174.578,85.8701 177.911,85.0368 181.5,85C 183,84.1667 184.167,83 185,81.5C 184.707,85.5684 186.041,88.9018 189,91.5C 189.495,93.4727 189.662,95.4727 189.5,97.5C 191.604,97.2011 193.604,97.5344 195.5,98.5C 196.815,100.316 198.315,101.983 200,103.5C 200.688,104.332 200.521,104.998 199.5,105.5C 197.929,106.309 196.262,106.643 194.5,106.5C 194.48,104.857 195.147,103.524 196.5,102.5C 194.506,100.083 192.673,100.083 191,102.5C 190.5,101.333 189.667,100.5 188.5,100C 189.167,99.6667 189.833,99.3333 190.5,99C 188.783,97.4412 186.783,96.6079 184.5,96.5C 184.649,97.552 184.483,98.552 184,99.5C 182.302,98.267 180.302,97.6004 178,97.5C 176.167,97.8333 174.333,98.1667 172.5,98.5C 173.165,100.101 173.499,101.601 173.5,103C 170.167,103.333 166.833,103.667 163.5,104C 161.342,105.983 159.675,108.317 158.5,111C 157.256,111.456 156.423,110.956 156,109.5C 154.956,111.715 154.29,114.048 154,116.5C 150.716,118.877 149.216,122.21 149.5,126.5C 148.5,126.5 147.5,126.5 146.5,126.5C 146.297,128.39 146.963,129.89 148.5,131C 146.559,131.304 144.893,132.137 143.5,133.5C 142.713,132.758 142.047,131.925 141.5,131C 140.563,130.308 139.897,130.475 139.5,131.5C 138.167,132.167 138.167,132.833 139.5,133.5C 140.398,134.158 141.398,134.824 142.5,135.5C 140.771,137.851 140.104,140.518 140.5,143.5C 143.535,143.521 145.868,144.854 147.5,147.5C 148.251,146.624 148.751,145.624 149,144.5C 150.702,147.703 153.202,150.036 156.5,151.5C 157.629,153.628 157.796,155.961 157,158.5C 148.416,166.661 142.083,176.327 138,187.5C 128.333,195.833 118.667,204.167 109,212.5C 109.622,221.631 114.455,227.297 123.5,229.5C 124.215,235.595 121.548,239.095 115.5,240C 111.036,246.786 111.87,252.952 118,258.5C 118.167,262 118.333,265.5 118.5,269C 117.54,281.261 115.873,293.428 113.5,305.5C 118.638,305.49 122.805,307.49 126,311.5C 131.619,321.425 134.119,332.092 133.5,343.5C 90.4389,334.251 55.9389,311.918 30,276.5C 14.8627,254.9 4.69603,231.233 -0.5,205.5C -0.5,183.833 -0.5,162.167 -0.5,140.5C 3.40406,122.329 9.90406,104.996 19,88.5C 49.3522,37.7322 93.8522,8.06557 152.5,-0.5 Z"/></g>
<g><path style="opacity:1" fill="#f8f8f8" d="M 188.5,-0.5 C 241.167,-0.5 293.833,-0.5 346.5,-0.5C 346.5,51.8333 346.5,104.167 346.5,156.5C 341.946,120.818 328.279,89.1511 305.5,61.5C 274.574,25.8672 235.574,5.20054 188.5,-0.5 Z"/></g>
<g><path style="opacity:1" fill="#838989" d="M 194.5,27.5 C 196.337,27.6395 196.67,28.3061 195.5,29.5C 194.702,29.0431 194.369,28.3764 194.5,27.5 Z"/></g>
<g><path style="opacity:1" fill="#b4b5b3" d="M 130.5,26.5 C 131.833,26.5 133.167,26.5 134.5,26.5C 134.5,27.8333 134.5,29.1667 134.5,30.5C 133.167,30.5 131.833,30.5 130.5,30.5C 130.5,29.1667 130.5,27.8333 130.5,26.5 Z"/></g>
<g><path style="opacity:1" fill="#d1d3d2" d="M 202.5,34.5 C 204.337,34.6395 204.67,35.3061 203.5,36.5C 202.702,36.0431 202.369,35.3764 202.5,34.5 Z"/></g>
<g><path style="opacity:1" fill="#9c9d9c" d="M 103.5,45.5 C 105.337,45.6395 105.67,46.3061 104.5,47.5C 103.702,47.0431 103.369,46.3764 103.5,45.5 Z"/></g>
<g><path style="opacity:1" fill="#797979" d="M 173.5,45.5 C 175.337,45.6395 175.67,46.3061 174.5,47.5C 173.702,47.0431 173.369,46.3764 173.5,45.5 Z"/></g>
<g><path style="opacity:1" fill="#050707" d="M 274.5,65.5 C 274.5,65.8333 274.5,66.1667 274.5,66.5C 273.25,66.5774 272.417,67.244 272,68.5C 270.667,67.8333 269.667,66.8333 269,65.5C 269.006,67.2985 269.339,68.9652 270,70.5C 269.586,70.0426 269.086,69.7093 268.5,69.5C 255.52,72.4455 255.52,73.7789 268.5,73.5C 268.5,76.8333 268.5,80.1667 268.5,83.5C 265.833,84.1667 265.833,84.8333 268.5,85.5C 268.511,87.0174 269.177,88.1841 270.5,89C 269.484,89.5194 268.818,90.3527 268.5,91.5C 269.48,93.5193 270.814,95.3526 272.5,97C 270.893,98.049 270.227,99.549 270.5,101.5C 271.833,101.5 273.167,101.5 274.5,101.5C 274.274,104.713 274.107,107.713 274,110.5C 272.283,109.545 270.616,108.545 269,107.5C 267.538,112.721 268.872,114.054 273,111.5C 277.259,114.806 279.426,113.806 279.5,108.5C 277.897,108.688 276.563,108.188 275.5,107C 276.167,106.667 276.833,106.333 277.5,106C 276.663,104.989 276.33,103.822 276.5,102.5C 278.787,102.276 280.953,101.609 283,100.5C 286.105,101.367 289.272,101.701 292.5,101.5C 292.67,100.178 292.337,99.0113 291.5,98C 292.448,97.5172 293.448,97.3505 294.5,97.5C 294.624,99.952 295.624,101.952 297.5,103.5C 296.673,106.783 296.34,110.116 296.5,113.5C 297.833,113.5 299.167,113.5 300.5,113.5C 300.5,114.833 300.5,116.167 300.5,117.5C 303.167,117.5 305.833,117.5 308.5,117.5C 308.343,118.873 308.51,120.207 309,121.5C 309.626,117.041 312.126,114.375 316.5,113.5C 316.5,112.5 316.5,111.5 316.5,110.5C 312.515,110.371 311.182,108.537 312.5,105C 310.32,103.239 308.654,101.073 307.5,98.5C 307.502,100.537 307.168,102.537 306.5,104.5C 305.833,104.5 305.167,104.5 304.5,104.5C 302.7,103.395 301.533,104.061 301,106.5C 300.743,103.983 301.41,101.65 303,99.5C 303.893,100.711 304.726,100.711 305.5,99.5C 304.833,98.1667 304.167,96.8333 303.5,95.5C 298.917,93.7489 295.417,90.7489 293,86.5C 292.439,87.0219 291.772,87.3552 291,87.5C 286.192,86.0189 281.692,84.0189 277.5,81.5C 276.001,83.8022 274.668,83.4689 273.5,80.5C 275.585,78.1482 277.085,75.4815 278,72.5C 278.508,74.9042 279.675,75.5709 281.5,74.5C 280.509,72.6769 279.176,71.1769 277.5,70C 281.489,67.5785 283.489,68.4118 283.5,72.5C 286.5,73.1667 289.5,73.8333 292.5,74.5C 290.308,75.8587 288.641,77.6921 287.5,80C 286.5,80.3333 285.5,80.6667 284.5,81C 287.514,81.1276 290.514,81.1276 293.5,81C 296.421,88.4645 298.755,88.2978 300.5,80.5C 300.199,77.511 298.532,76.1776 295.5,76.5C 298.946,72.5166 301.612,68.0166 303.5,63C 302.044,62.5774 301.544,61.7441 302,60.5C 303.011,61.3366 304.178,61.67 305.5,61.5C 328.279,89.1511 341.946,120.818 346.5,156.5C 346.5,167.5 346.5,178.5 346.5,189.5C 336.553,260.951 298.22,310.451 231.5,338C 224.616,340.351 217.616,342.185 210.5,343.5C 215.138,324.739 212.638,307.072 203,290.5C 201.333,288.833 199.667,287.167 198,285.5C 195.086,263.556 194.753,241.556 197,219.5C 200.843,189.522 204.177,159.522 207,129.5C 200.455,111.461 187.621,103.461 168.5,105.5C 163.44,116.888 156.774,127.222 148.5,136.5C 152.074,141.059 154.741,146.059 156.5,151.5C 153.202,150.036 150.702,147.703 149,144.5C 148.751,145.624 148.251,146.624 147.5,147.5C 145.868,144.854 143.535,143.521 140.5,143.5C 140.104,140.518 140.771,137.851 142.5,135.5C 141.398,134.824 140.398,134.158 139.5,133.5C 140.833,132.833 140.833,132.167 139.5,131.5C 139.897,130.475 140.563,130.308 141.5,131C 142.047,131.925 142.713,132.758 143.5,133.5C 144.893,132.137 146.559,131.304 148.5,131C 146.963,129.89 146.297,128.39 146.5,126.5C 147.5,126.5 148.5,126.5 149.5,126.5C 149.216,122.21 150.716,118.877 154,116.5C 154.29,114.048 154.956,111.715 156,109.5C 156.423,110.956 157.256,111.456 158.5,111C 159.675,108.317 161.342,105.983 163.5,104C 166.833,103.667 170.167,103.333 173.5,103C 173.499,101.601 173.165,100.101 172.5,98.5C 174.333,98.1667 176.167,97.8333 178,97.5C 180.302,97.6004 182.302,98.267 184,99.5C 184.483,98.552 184.649,97.552 184.5,96.5C 186.783,96.6079 188.783,97.4412 190.5,99C 189.833,99.3333 189.167,99.6667 188.5,100C 189.667,100.5 190.5,101.333 191,102.5C 192.673,100.083 194.506,100.083 196.5,102.5C 195.147,103.524 194.48,104.857 194.5,106.5C 196.262,106.643 197.929,106.309 199.5,105.5C 200.521,104.998 200.688,104.332 200,103.5C 198.315,101.983 196.815,100.316 195.5,98.5C 193.604,97.5344 191.604,97.2011 189.5,97.5C 189.662,95.4727 189.495,93.4727 189,91.5C 186.041,88.9018 184.707,85.5684 185,81.5C 184.167,83 183,84.1667 181.5,85C 177.911,85.0368 174.578,85.8701 171.5,87.5C 171.167,87.1667 170.833,86.8333 170.5,86.5C 171.761,84.5466 172.927,82.5466 174,80.5C 175.356,81.3802 176.856,81.7135 178.5,81.5C 178.48,79.857 179.147,78.5237 180.5,77.5C 179.872,75.7419 178.872,74.2419 177.5,73C 178.167,71.6667 179.167,70.6667 180.5,70C 183.146,69.5026 185.813,69.3359 188.5,69.5C 188.5,71.1667 188.5,72.8333 188.5,74.5C 192.042,74.6198 195.542,74.2865 199,73.5C 201.069,74.2701 202.735,75.6035 204,77.5C 204.212,74.2423 204.712,71.0757 205.5,68C 206.167,67.3333 206.833,67.3333 207.5,68C 206.289,68.8928 206.289,69.7261 207.5,70.5C 209.199,69.1854 210.865,69.1854 212.5,70.5C 212.711,72.4241 213.377,72.7574 214.5,71.5C 215.5,71.5 216.5,71.5 217.5,71.5C 217.509,69.6916 217.009,68.0249 216,66.5C 214.604,68.5268 212.938,68.8602 211,67.5C 210.548,64.8506 209.714,62.3506 208.5,60C 208.833,59.6667 209.167,59.3333 209.5,59C 208.149,57.3829 206.482,56.2162 204.5,55.5C 207.344,55.2528 210.177,54.9195 213,54.5C 215.987,57.3251 215.487,58.6584 211.5,58.5C 212.736,59.3567 214.069,60.0234 215.5,60.5C 216.532,58.9604 217.865,58.4604 219.5,59C 218.692,59.3076 218.025,59.8076 217.5,60.5C 218.853,61.6853 220.02,63.0186 221,64.5C 221.318,62.9391 222.151,61.7724 223.5,61C 222.027,60.2904 221.36,59.1238 221.5,57.5C 226.46,58.7551 231.46,58.7551 236.5,57.5C 237.167,53.5 237.833,53.5 238.5,57.5C 239.833,57.5 241.167,57.5 242.5,57.5C 243.167,53.5 243.833,53.5 244.5,57.5C 249.167,57.5 253.833,57.5 258.5,57.5C 257.5,54.8333 256.5,52.1667 255.5,49.5C 257.592,49.5614 259.092,50.5614 260,52.5C 260.333,51.8333 260.667,51.1667 261,50.5C 261.595,51.8989 261.428,53.2322 260.5,54.5C 261.522,55.354 262.355,56.354 263,57.5C 264,56.1667 265,56.1667 266,57.5C 266.419,56.3279 267.085,55.3279 268,54.5C 267.883,56.9986 268.216,59.6653 269,62.5C 270.186,64.6766 272.019,65.6766 274.5,65.5 Z"/></g>
<g><path style="opacity:1" fill="#959895" d="M 148.5,51.5 C 150.337,51.6395 150.67,52.3061 149.5,53.5C 148.702,53.0431 148.369,52.3764 148.5,51.5 Z"/></g>
<g><path style="opacity:1" fill="#bdbdbd" d="M 234.5,62.5 C 236.337,62.6395 236.67,63.3061 235.5,64.5C 234.702,64.0431 234.369,63.3764 234.5,62.5 Z"/></g>
<g><path style="opacity:1" fill="#858585" d="M 105.5,64.5 C 107.337,64.6395 107.67,65.3061 106.5,66.5C 105.702,66.0431 105.369,65.3764 105.5,64.5 Z"/></g>
<g><path style="opacity:1" fill="#bec1c0" d="M 274.5,66.5 C 274.5,66.1667 274.5,65.8333 274.5,65.5C 275.601,64.4017 276.934,64.235 278.5,65C 277.167,66 277.167,67 278.5,68C 276.537,68.8442 275.204,68.3442 274.5,66.5 Z"/></g>
<g><path style="opacity:1" fill="#808383" d="M 212.5,70.5 C 213.492,70.3284 214.158,70.6618 214.5,71.5C 213.377,72.7574 212.711,72.4241 212.5,70.5 Z"/></g>
<g><path style="opacity:1" fill="#d5d5d5" d="M 245.5,76.5 C 247.337,76.6395 247.67,77.3061 246.5,78.5C 245.702,78.0431 245.369,77.3764 245.5,76.5 Z"/></g>
<g><path style="opacity:1" fill="#9a9d9d" d="M 268.5,83.5 C 268.5,84.1667 268.5,84.8333 268.5,85.5C 265.833,84.8333 265.833,84.1667 268.5,83.5 Z"/></g>
<g><path style="opacity:1" fill="#90928f" d="M 37.5,96.5 C 38.552,96.3505 39.552,96.5172 40.5,97C 39.1667,97.6667 39.1667,98.3333 40.5,99C 39.552,99.4828 38.552,99.6495 37.5,99.5C 37.5,98.5 37.5,97.5 37.5,96.5 Z"/></g>
<g><path style="opacity:1" fill="#dbdbd5" d="M 70.5,98.5 C 72.337,98.6395 72.6704,99.3061 71.5,100.5C 70.7025,100.043 70.3691,99.3764 70.5,98.5 Z"/></g>
<g><path style="opacity:1" fill="#f8f8f8" d="M 346.5,189.5 C 346.5,241.5 346.5,293.5 346.5,345.5C 230.833,345.5 115.167,345.5 -0.5,345.5C -0.5,298.833 -0.5,252.167 -0.5,205.5C 4.69603,231.233 14.8627,254.9 30,276.5C 55.9389,311.918 90.4389,334.251 133.5,343.5C 134.119,332.092 131.619,321.425 126,311.5C 122.805,307.49 118.638,305.49 113.5,305.5C 115.873,293.428 117.54,281.261 118.5,269C 118.333,265.5 118.167,262 118,258.5C 111.87,252.952 111.036,246.786 115.5,240C 121.548,239.095 124.215,235.595 123.5,229.5C 114.455,227.297 109.622,221.631 109,212.5C 118.667,204.167 128.333,195.833 138,187.5C 142.083,176.327 148.416,166.661 157,158.5C 157.796,155.961 157.629,153.628 156.5,151.5C 154.741,146.059 152.074,141.059 148.5,136.5C 156.774,127.222 163.44,116.888 168.5,105.5C 187.621,103.461 200.455,111.461 207,129.5C 204.177,159.522 200.843,189.522 197,219.5C 194.753,241.556 195.086,263.556 198,285.5C 199.667,287.167 201.333,288.833 203,290.5C 212.638,307.072 215.138,324.739 210.5,343.5C 217.616,342.185 224.616,340.351 231.5,338C 298.22,310.451 336.553,260.951 346.5,189.5 Z"/></g>
<g><path style="opacity:1" fill="#bebebe" d="M 304.5,104.5 C 305.167,104.5 305.833,104.5 306.5,104.5C 305.833,107.167 305.167,107.167 304.5,104.5 Z"/></g>
<g><path style="opacity:1" fill="#959695" d="M 235.5,105.5 C 239.133,105.443 239.3,106.443 236,108.5C 235.517,107.552 235.351,106.552 235.5,105.5 Z"/></g>
<g><path style="opacity:1" fill="#9a9c9c" d="M 88.5,109.5 C 89.209,108.596 90.209,108.263 91.5,108.5C 91.5,109.5 91.5,110.5 91.5,111.5C 90.448,111.649 89.448,111.483 88.5,111C 89.7383,110.31 89.7383,109.81 88.5,109.5 Z"/></g>
<g><path style="opacity:1" fill="#909090" d="M 123.5,109.5 C 124.404,110.209 124.737,111.209 124.5,112.5C 123.448,112.649 122.448,112.483 121.5,112C 122.381,111.292 123.047,110.458 123.5,109.5 Z"/></g>
<g><path style="opacity:1" fill="#a7a9a6" d="M 74.5,118.5 C 75.5,118.5 76.5,118.5 77.5,118.5C 77.6495,119.552 77.4828,120.552 77,121.5C 76.3333,120.167 75.6667,120.167 75,121.5C 74.5172,120.552 74.3505,119.552 74.5,118.5 Z"/></g>
<g><path style="opacity:1" fill="#858786" d="M 101.5,116.5 C 102.397,117.598 103.23,117.598 104,116.5C 104.483,117.448 104.649,118.448 104.5,119.5C 103.5,119.5 102.5,119.5 101.5,119.5C 101.5,118.5 101.5,117.5 101.5,116.5 Z"/></g>
<g><path style="opacity:1" fill="#b6b9b3" d="M 231.5,118.5 C 233.337,118.639 233.67,119.306 232.5,120.5C 231.702,120.043 231.369,119.376 231.5,118.5 Z"/></g>
<g><path style="opacity:1" fill="#959998" d="M 250.5,128.5 C 252.337,128.639 252.67,129.306 251.5,130.5C 250.702,130.043 250.369,129.376 250.5,128.5 Z"/></g>
<g><path style="opacity:1" fill="#828684" d="M 139.5,131.5 C 140.833,132.167 140.833,132.833 139.5,133.5C 138.167,132.833 138.167,132.167 139.5,131.5 Z"/></g>
<g><path style="opacity:1" fill="#9c9e9e" d="M 106.5,138.5 C 107.5,138.5 108.5,138.5 109.5,138.5C 109.649,139.552 109.483,140.552 109,141.5C 108.333,140.167 107.667,140.167 107,141.5C 106.517,140.552 106.351,139.552 106.5,138.5 Z"/></g>
<g><path style="opacity:1" fill="#8b8d8d" d="M 235.5,138.5 C 239.133,138.443 239.3,139.443 236,141.5C 235.517,140.552 235.351,139.552 235.5,138.5 Z"/></g>
<g><path style="opacity:1" fill="#b7b9b5" d="M 262.5,136.5 C 264.332,137.14 264.665,138.14 263.5,139.5C 262.614,138.675 262.281,137.675 262.5,136.5 Z"/></g>
<g><path style="opacity:1" fill="#dadada" d="M 318.5,138.5 C 320.337,138.639 320.67,139.306 319.5,140.5C 318.702,140.043 318.369,139.376 318.5,138.5 Z"/></g>
<g><path style="opacity:1" fill="#acadad" d="M 300.5,140.5 C 301.376,140.369 302.043,140.702 302.5,141.5C 300.192,142.873 299.525,142.54 300.5,140.5 Z"/></g>
<g><path style="opacity:1" fill="#c2bfb8" d="M 49.5,148.5 C 52.7973,148.329 53.1306,148.995 50.5,150.5C 49.7025,150.043 49.3691,149.376 49.5,148.5 Z"/></g>
<g><path style="opacity:1" fill="#9fa0a1" d="M 280.5,148.5 C 282.337,148.639 282.67,149.306 281.5,150.5C 280.702,150.043 280.369,149.376 280.5,148.5 Z"/></g>
<g><path style="opacity:1" fill="#c9c9c3" d="M 73.5,154.5 C 75.337,154.639 75.6704,155.306 74.5,156.5C 73.7025,156.043 73.3691,155.376 73.5,154.5 Z"/></g>
<g><path style="opacity:1" fill="#636566" d="M 18.5,155.5 C 19.397,156.598 20.2303,156.598 21,155.5C 21.4828,156.448 21.6495,157.448 21.5,158.5C 20.5,158.5 19.5,158.5 18.5,158.5C 18.5,157.5 18.5,156.5 18.5,155.5 Z"/></g>
<g><path style="opacity:1" fill="#c6cac5" d="M 315.5,166.5 C 317.337,166.639 317.67,167.306 316.5,168.5C 315.702,168.043 315.369,167.376 315.5,166.5 Z"/></g>
<g><path style="opacity:1" fill="#a4a4a2" d="M 287.5,168.5 C 288.209,167.596 289.209,167.263 290.5,167.5C 290.5,168.5 290.5,169.5 290.5,170.5C 289.448,170.649 288.448,170.483 287.5,170C 288.738,169.31 288.738,168.81 287.5,168.5 Z"/></g>
<g><path style="opacity:1" fill="#666867" d="M 257.5,171.5 C 258.5,171.5 259.5,171.5 260.5,171.5C 260.5,172.5 260.5,173.5 260.5,174.5C 259.5,174.5 258.5,174.5 257.5,174.5C 257.5,173.5 257.5,172.5 257.5,171.5 Z"/></g>
<g><path style="opacity:1" fill="#858b8a" d="M 113.5,177.5 C 114.601,176.402 115.934,176.235 117.5,177C 116.167,177.667 116.167,178.333 117.5,179C 115.807,179.484 114.473,178.984 113.5,177.5 Z"/></g>
<g><path style="opacity:1" fill="#a0a2a0" d="M 276.5,187.5 C 277.376,187.369 278.043,187.702 278.5,188.5C 276.192,189.873 275.525,189.54 276.5,187.5 Z"/></g>
<g><path style="opacity:1" fill="#9fa1a1" d="M 270.5,190.5 C 272.337,190.639 272.67,191.306 271.5,192.5C 270.702,192.043 270.369,191.376 270.5,190.5 Z"/></g>
<g><path style="opacity:1" fill="#cfd1ca" d="M 316.5,193.5 C 318.337,193.639 318.67,194.306 317.5,195.5C 316.702,195.043 316.369,194.376 316.5,193.5 Z"/></g>
<g><path style="opacity:1" fill="#a6a7a3" d="M 41.5,196.5 C 43.337,196.639 43.6704,197.306 42.5,198.5C 41.7025,198.043 41.3691,197.376 41.5,196.5 Z"/></g>
<g><path style="opacity:1" fill="#adadad" d="M 288.5,207.5 C 290.337,207.639 290.67,208.306 289.5,209.5C 288.702,209.043 288.369,208.376 288.5,207.5 Z"/></g>
<g><path style="opacity:1" fill="#7e817f" d="M 55.5,217.5 C 56.209,216.596 57.209,216.263 58.5,216.5C 58.5,217.5 58.5,218.5 58.5,219.5C 57.448,219.649 56.448,219.483 55.5,219C 56.7383,218.31 56.7383,217.81 55.5,217.5 Z"/></g>
<g><path style="opacity:1" fill="#cdd1ce" d="M 319.5,215.5 C 321.337,215.639 321.67,216.306 320.5,217.5C 319.702,217.043 319.369,216.376 319.5,215.5 Z"/></g>
<g><path style="opacity:1" fill="#c3c4c3" d="M 88.5,218.5 C 90.337,218.639 90.6704,219.306 89.5,220.5C 88.7025,220.043 88.3691,219.376 88.5,218.5 Z"/></g>
<g><path style="opacity:1" fill="#aeaeab" d="M 255.5,220.5 C 257.337,220.639 257.67,221.306 256.5,222.5C 255.702,222.043 255.369,221.376 255.5,220.5 Z"/></g>
<g><path style="opacity:1" fill="#bdbfbf" d="M 241.5,221.5 C 243.337,221.639 243.67,222.306 242.5,223.5C 241.702,223.043 241.369,222.376 241.5,221.5 Z"/></g>
<g><path style="opacity:1" fill="#b4b5b2" d="M 41.5,226.5 C 43.337,226.639 43.6704,227.306 42.5,228.5C 41.7025,228.043 41.3691,227.376 41.5,226.5 Z"/></g>
<g><path style="opacity:1" fill="#b0b0b0" d="M 262.5,232.5 C 264.76,233.238 264.927,234.238 263,235.5C 262.517,234.552 262.351,233.552 262.5,232.5 Z"/></g>
<g><path style="opacity:1" fill="#a9a9a9" d="M 211.5,239.5 C 213.337,239.639 213.67,240.306 212.5,241.5C 211.702,241.043 211.369,240.376 211.5,239.5 Z"/></g>
<g><path style="opacity:1" fill="#cbccc7" d="M 272.5,240.5 C 274.337,240.639 274.67,241.306 273.5,242.5C 272.702,242.043 272.369,241.376 272.5,240.5 Z"/></g>
<g><path style="opacity:1" fill="#c2c3c2" d="M 245.5,242.5 C 247.337,242.639 247.67,243.306 246.5,244.5C 245.702,244.043 245.369,243.376 245.5,242.5 Z"/></g>
<g><path style="opacity:1" fill="#d3d6cf" d="M 301.5,243.5 C 303.337,243.639 303.67,244.306 302.5,245.5C 301.702,245.043 301.369,244.376 301.5,243.5 Z"/></g>
<g><path style="opacity:1" fill="#909290" d="M 235.5,244.5 C 237.337,244.639 237.67,245.306 236.5,246.5C 235.702,246.043 235.369,245.376 235.5,244.5 Z"/></g>
<g><path style="opacity:1" fill="#acafac" d="M 275.5,256.5 C 277.337,256.639 277.67,257.306 276.5,258.5C 275.702,258.043 275.369,257.376 275.5,256.5 Z"/></g>
<g><path style="opacity:1" fill="#777a75" d="M 61.5,267.5 C 62.397,268.598 63.2303,268.598 64,267.5C 64.4828,268.448 64.6495,269.448 64.5,270.5C 63.5,270.5 62.5,270.5 61.5,270.5C 61.5,269.5 61.5,268.5 61.5,267.5 Z"/></g>
<g><path style="opacity:1" fill="#7a7a7a" d="M 231.5,268.5 C 233.337,268.639 233.67,269.306 232.5,270.5C 231.702,270.043 231.369,269.376 231.5,268.5 Z"/></g>
<g><path style="opacity:1" fill="#797c79" d="M 268.5,275.5 C 269.5,275.5 270.5,275.5 271.5,275.5C 271.5,276.5 271.5,277.5 271.5,278.5C 270.5,278.5 269.5,278.5 268.5,278.5C 268.5,277.5 268.5,276.5 268.5,275.5 Z"/></g>
<g><path style="opacity:1" fill="#8d9190" d="M 90.5,275.5 C 91.552,275.351 92.552,275.517 93.5,276C 92.1667,276.667 92.1667,277.333 93.5,278C 92.552,278.483 91.552,278.649 90.5,278.5C 90.5,277.5 90.5,276.5 90.5,275.5 Z"/></g>
<g><path style="opacity:1" fill="#9c9c9c" d="M 301.5,277.5 C 303.337,277.639 303.67,278.306 302.5,279.5C 301.702,279.043 301.369,278.376 301.5,277.5 Z"/></g>
<g><path style="opacity:1" fill="#8a8b89" d="M 254.5,285.5 C 255.552,285.351 256.552,285.517 257.5,286C 256.167,286.667 256.167,287.333 257.5,288C 256.552,288.483 255.552,288.649 254.5,288.5C 254.5,287.5 254.5,286.5 254.5,285.5 Z"/></g>
<g><path style="opacity:1" fill="#c3c4c3" d="M 281.5,284.5 C 283.337,284.639 283.67,285.306 282.5,286.5C 281.702,286.043 281.369,285.376 281.5,284.5 Z"/></g>
<g><path style="opacity:1" fill="#898c88" d="M 67.5,288.5 C 68.5,288.5 69.5,288.5 70.5,288.5C 70.5,289.5 70.5,290.5 70.5,291.5C 69.5,291.5 68.5,291.5 67.5,291.5C 67.5,290.5 67.5,289.5 67.5,288.5 Z"/></g>
</svg>
